<?xml version="1.0" encoding="UTF-8" standalone="no"?>
<svg
   xmlns:dc="http://purl.org/dc/elements/1.1/"
   xmlns:cc="http://creativecommons.org/ns#"
   xmlns:rdf="http://www.w3.org/1999/02/22-rdf-syntax-ns#"
   xmlns:svg="http://www.w3.org/2000/svg"
   xmlns="http://www.w3.org/2000/svg"
   xmlns:sodipodi="http://sodipodi.sourceforge.net/DTD/sodipodi-0.dtd"
   xmlns:inkscape="http://www.inkscape.org/namespaces/inkscape"
   id="Layer_1"
   x="0px"
   y="0px"
   viewBox="0 0 1122.5197 793.70082"
   xml:space="preserve"
   version="1.1"
   sodipodi:docname="ruminant.svg"
   width="297mm"
   height="210mm"
   inkscape:version="0.92.0 r"><metadata
     id="metadata4543"><rdf:RDF><cc:Work
         rdf:about=""><dc:format>image/svg+xml</dc:format><dc:type
           rdf:resource="http://purl.org/dc/dcmitype/StillImage" /><dc:title></dc:title></cc:Work></rdf:RDF></metadata><defs
     id="defs4541"><marker
       inkscape:stockid="Arrow1Send"
       orient="auto"
       refY="0.0"
       refX="0.0"
       id="Arrow1Send"
       style="overflow:visible;"
       inkscape:isstock="true"><path
         id="path4592"
         d="M 0.0,0.0 L 5.0,-5.0 L -12.5,0.0 L 5.0,5.0 L 0.0,0.0 z "
         style="fill-rule:evenodd;stroke:#b71e00;stroke-width:1pt;stroke-opacity:1;fill:#b71e00;fill-opacity:1"
         transform="scale(0.2) rotate(180) translate(6,0)" /></marker><marker
       inkscape:stockid="Arrow1Lend"
       orient="auto"
       refY="0.0"
       refX="0.0"
       id="Arrow1Lend"
       style="overflow:visible;"
       inkscape:isstock="true"><path
         id="path4580"
         d="M 0.0,0.0 L 5.0,-5.0 L -12.5,0.0 L 5.0,5.0 L 0.0,0.0 z "
         style="fill-rule:evenodd;stroke:#e70000;stroke-width:1pt;stroke-opacity:1;fill:#e70000;fill-opacity:1"
         transform="scale(0.8) rotate(180) translate(12.5,0)" /></marker><marker
       inkscape:stockid="Arrow1Send"
       orient="auto"
       refY="0"
       refX="0"
       id="Arrow1Send-3"
       style="overflow:visible"
       inkscape:isstock="true"><path
         inkscape:connector-curvature="0"
         id="path4592-9"
         d="M 0,0 5,-5 -12.5,0 5,5 Z"
         style="fill:#1c7ea9;fill-opacity:1;fill-rule:evenodd;stroke:#1c7ea9;stroke-width:1.00000003pt;stroke-opacity:1"
         transform="matrix(-0.2,0,0,-0.2,-1.2,0)" /></marker></defs><sodipodi:namedview
     pagecolor="#ffffff"
     bordercolor="#666666"
     borderopacity="1"
     objecttolerance="10"
     gridtolerance="10"
     guidetolerance="10"
     inkscape:pageopacity="0"
     inkscape:pageshadow="2"
     inkscape:window-width="3436"
     inkscape:window-height="1404"
     id="namedview4539"
     showgrid="false"
     units="mm"
     inkscape:zoom="0.44771636"
     inkscape:cx="-49.198991"
     inkscape:cy="174.67786"
     inkscape:window-x="0"
     inkscape:window-y="16"
     inkscape:window-maximized="0"
     inkscape:current-layer="Layer_1" /><style
     type="text/css"
     id="style4534"> .st0{fill-rule:evenodd;clip-rule:evenodd;fill:#00953A;} </style><ellipse
     style="fill:#006700;fill-opacity:0.6627451;stroke:none;stroke-width:3;stroke-miterlimit:4;stroke-dasharray:none;stroke-opacity:0.66216221"
     id="path4886"
     cx="845.95972"
     cy="325.49146"
     rx="44.671139"
     ry="42.158386" /><path
     class="st0"
     d="m 755.03011,206.78933 c 5.38224,0.48929 9.2966,1.95718 12.72167,4.89295 9.2966,-2.93577 15.65744,-6.85013 21.52897,-12.23238 3.42507,-2.44647 3.42507,-1.95718 1.95718,0.97859 -3.91436,6.85013 -8.8073,13.21097 -17.61461,18.59321 0.97859,1.95718 1.95718,3.91436 2.93577,6.36083 13.70025,7.82872 22.99686,22.50757 23.97545,38.6543 8.31801,10.2752 14.67885,20.55039 23.48616,30.82559 15.16814,8.31801 16.63602,32.29346 1.46788,37.18641 -3.91436,5.38224 -8.80731,7.33942 -16.14673,6.85013 -18.10392,-2.44648 -19.08251,1.46788 -35.71853,5.87154 -7.82872,1.95718 -15.16815,2.93577 -23.48616,1.95718 -4.89295,10.27519 -11.25378,15.16814 -21.52898,20.06109 -4.89295,18.59321 -20.55039,39.63289 -36.20782,48.4402 -1.46789,0.97859 -2.44648,1.46789 -2.44648,1.46789 v 0 c -6.85013,13.21096 -16.63603,22.01827 -28.8684,28.8684 -0.48929,20.55038 -2.44647,38.6543 -8.31801,59.20468 0.48929,14.67885 2.93577,30.82559 7.33942,46.48302 3.42507,4.89295 30.82558,31.80417 16.63603,33.76135 -4.89295,0.4893 -15.16814,0.4893 -20.06109,-0.48929 -11.74308,-2.93577 -14.67885,-8.31801 -16.63603,-18.10391 -3.42507,0 -5.87154,-2.93577 -6.36084,-7.82872 -1.46788,-28.37911 -2.93577,-41.59007 -6.36083,-54.80104 -0.97859,4.40366 -2.44648,8.80731 -3.91436,13.21097 -0.97859,14.18955 -0.48929,26.91122 0,41.10077 v 1.46789 c 1.46788,1.95718 3.42506,4.40365 5.38224,6.85013 l 4.40366,5.87154 c 1.46788,2.44647 2.93577,4.40365 4.40365,7.33942 0.97859,1.95718 1.95718,4.89295 1.46789,7.33942 0,0.97859 -0.4893,2.44648 -1.46789,3.42507 -0.48929,0.48929 -0.97859,0.97859 -1.46788,0.97859 -4.89295,2.44647 -17.61462,1.46788 -22.99686,0 -0.4893,0 -1.46789,-0.4893 -1.95718,-0.4893 -0.97859,-0.48929 -1.46789,-0.48929 -2.44648,-0.97859 -2.93577,-0.97859 -5.38224,-2.93577 -7.33942,-4.89295 -1.95718,-1.95718 -3.42507,-4.40365 -4.40366,-6.85012 -0.97859,-3.42507 -0.97859,-8.31802 0,-11.74308 v -0.4893 c -1.46788,0 -2.44647,0 -3.91436,-0.97859 -0.97859,-0.97859 -1.95718,-2.44647 -1.95718,-3.42506 -0.48929,-0.97859 -0.48929,-2.44648 -0.48929,-3.42507 0,-0.97859 0,-2.44647 0.48929,-3.42506 2.44648,-17.12532 2.93577,-31.31488 0.4893,-48.9295 -3.91436,-16.14673 -5.38225,-30.33628 -6.85013,-47.9509 -16.14673,1.46788 -32.78276,2.44647 -49.41879,0.48929 -12.23237,-1.46788 -38.165,-9.2966 -47.46161,0.4893 -0.48929,2.93577 0,4.89295 0.4893,7.33942 0,0.97859 0,1.46789 -0.97859,1.95718 h -0.97859 c -2.44648,-0.97859 -4.40366,-1.46788 -6.36084,-2.93577 -1.95718,-0.97859 -3.91436,-2.44647 -5.87154,-3.91436 -1.95718,-1.46788 -3.42506,-2.93577 -5.38224,-3.91435 -12.72167,-8.80731 -39.1436,-11.25379 -51.86526,-13.21097 -9.29661,-1.46788 -17.12533,-2.93577 -25.44334,-5.38224 -11.74308,24.46474 -23.48616,29.35769 -26.91122,48.4402 -3.42507,19.0825 5.87154,40.61148 15.16814,57.2475 4.89295,5.38225 27.40052,26.91123 25.44334,35.22924 -0.97859,4.89295 -16.14674,4.40365 -20.55039,4.40365 -13.70026,0 -22.50757,-4.40365 -22.99686,-24.95404 -4.40365,1.95718 -7.33942,-0.48929 -9.2966,-6.85013 -2.93577,-9.7859 -3.91436,-13.70026 -7.82872,-23.97545 -7.82872,-21.52898 -14.67885,-33.27205 -19.0825,-56.26892 -14.67885,20.55039 -13.70026,41.59007 -11.25379,65.07623 0.97859,6.85013 1.95718,16.14673 2.93577,22.99686 4.40366,5.38225 11.25379,12.72167 13.70026,19.5718 2.44648,6.85013 -0.48929,10.76449 -7.82872,12.23237 -4.40365,0.4893 -9.7859,0.4893 -14.18955,0 -2.93577,-0.48929 -6.36084,-0.97859 -9.29661,-1.95718 -1.46788,-0.48929 -2.93576,-0.97859 -4.40365,-1.95718 -1.46788,-0.97859 -2.44647,-1.95718 -3.42506,-3.42506 -1.95718,-3.42507 -2.93577,-15.16814 -2.93577,-19.0825 v 0 c -1.46789,0.97859 -3.42507,1.46788 -4.89295,-0.4893 -0.97859,-0.97859 -0.97859,-1.95718 -1.46789,-2.93577 -0.48929,-1.95718 -0.48929,-3.91436 -0.48929,-5.87154 1.95718,-36.20782 -3.91436,-56.26892 -7.82872,-91.00886 -0.4893,-2.44647 -0.4893,-4.89295 0,-7.33942 -0.4893,0.48929 -1.46789,0.48929 -1.95718,0.97859 0.97859,-0.97859 1.46788,-2.44647 1.46788,-3.42506 -3.42506,3.42506 -7.82872,5.87153 -14.18955,4.89294 2.44647,-0.48929 6.36083,-2.44647 8.31801,-4.89294 -0.97859,0.48929 -3.42506,0.48929 -3.91436,0 15.65744,-7.82872 12.72167,-26.91123 15.65744,-40.61148 1.95718,-10.2752 4.89295,-18.59321 13.21097,-20.0611 1.95718,-18.10391 -0.4893,-37.67571 -2.93577,-55.77962 -3.42507,-24.46475 -6.85013,-45.01513 1.46788,-61.16187 3.91436,-7.33942 12.23237,-15.65744 21.03968,-19.5718 l 0.4893,-0.48929 c 16.63603,-17.61462 57.7368,-18.59321 95.41251,-15.16814 19.57179,1.95718 44.52584,4.89295 63.11904,9.2966 32.78276,0.97859 63.11905,-1.46788 95.90181,-6.36083 34.73994,-5.38225 62.62975,-9.29661 96.39111,-8.80731 6.36083,-3.42507 39.14359,-11.25379 52.84385,-11.74308 h 0.48929 c -0.48929,-1.95718 -0.48929,-3.91436 0,-5.38225 1.95718,-5.87153 7.33943,-8.31801 12.72167,-10.27519 7.82872,-3.42506 27.40052,-14.18955 31.80417,-21.03968 0.4893,-0.97859 1.46789,-0.97859 2.44648,-0.97859 0.97859,0 1.95718,1.46788 1.46788,2.44647 -0.48929,3.42507 -1.95718,6.36084 -3.42506,9.29661 -2.44648,2.44647 -4.40366,5.38224 -6.85013,7.82872 z"
     id="path4536"
     style="clip-rule:evenodd;fill:none;fill-rule:evenodd;stroke:#000000;stroke-width:4.89294958;stroke-opacity:1"
     inkscape:connector-curvature="0"
     sodipodi:nodetypes="cccccccccccccccccccccccccccccscsccccscccccscccccccccscccsccsccccccsccsscccccccccccccccccccccccccsccsccc" /><circle
     style="fill:#b71e00;fill-opacity:0.63529412;stroke:none;stroke-width:4;stroke-miterlimit:4;stroke-dasharray:none;stroke-opacity:0.63513513"
     id="path4545"
     cx="570.57971"
     cy="298.69327"
     r="44.568527" /><circle
     style="fill:#1b7da9;fill-opacity:0.6627451;stroke:none;stroke-width:4;stroke-miterlimit:4;stroke-dasharray:none;stroke-opacity:0.66216221"
     id="path4547"
     cx="511.25943"
     cy="388.01331"
     r="37.225819" /><text
     xml:space="preserve"
     style="font-style:normal;font-variant:normal;font-weight:normal;font-stretch:normal;font-size:26.66666603px;line-height:25px;font-family:sans-serif;-inkscape-font-specification:'sans-serif, Normal';font-variant-ligatures:normal;font-variant-caps:normal;font-variant-numeric:normal;font-feature-settings:normal;text-align:start;letter-spacing:0px;word-spacing:0px;writing-mode:lr-tb;text-anchor:start;fill:#1c7ea9;fill-opacity:1;stroke:none;stroke-width:1px;stroke-linecap:butt;stroke-linejoin:miter;stroke-opacity:1"
     x="312.97717"
     y="411.8324"
     id="text4551"><tspan
       sodipodi:role="line"
       id="tspan4549"
       x="312.97717"
       y="411.8324"
       style="font-style:normal;font-variant:normal;font-weight:normal;font-stretch:normal;font-size:26.66666603px;font-family:sans-serif;-inkscape-font-specification:'sans-serif, Normal';font-variant-ligatures:normal;font-variant-caps:normal;font-variant-numeric:normal;font-feature-settings:normal;text-align:start;writing-mode:lr-tb;text-anchor:start;fill:#1c7ea9;fill-opacity:1;stroke:none;stroke-opacity:1">InfluxDB</tspan></text>
<text
     xml:space="preserve"
     style="font-style:normal;font-variant:normal;font-weight:normal;font-stretch:normal;font-size:26.66666603px;line-height:25px;font-family:'Akkurat OT';-inkscape-font-specification:'Akkurat OT, Normal';font-variant-ligatures:normal;font-variant-caps:normal;font-variant-numeric:normal;font-feature-settings:normal;text-align:start;letter-spacing:0px;word-spacing:0px;writing-mode:lr-tb;text-anchor:start;fill:#b71e00;fill-opacity:1;stroke:none;stroke-width:1px;stroke-linecap:butt;stroke-linejoin:miter;stroke-opacity:1"
     x="331.55344"
     y="312.68399"
     id="text4551-3"><tspan
       sodipodi:role="line"
       id="tspan4549-6"
       x="331.55344"
       y="312.68399">ElasticSearch</tspan></text>
<path
     style="fill:none;fill-rule:evenodd;stroke:#b71e00;stroke-width:3;stroke-linecap:butt;stroke-linejoin:miter;stroke-miterlimit:4;stroke-dasharray:none;stroke-opacity:1;marker-end:url(#Arrow1Send)"
     d="m 616.46171,293.94244 c 54.72215,-18.98524 121.17046,-16.19329 183.71006,13.95973"
     id="path4575"
     inkscape:connector-curvature="0"
     sodipodi:nodetypes="cc" /><path
     style="fill:none;fill-rule:evenodd;stroke:#1c7ea9;stroke-width:3;stroke-linecap:butt;stroke-linejoin:miter;stroke-miterlimit:4;stroke-dasharray:none;stroke-opacity:1;marker-end:url(#Arrow1Send-3)"
     d="M 798.9271,318.55975 C 724.10295,314.65102 673.84791,306.27518 548.76872,373.84028"
     id="path4575-4"
     inkscape:connector-curvature="0"
     sodipodi:nodetypes="cc" /><text
     xml:space="preserve"
     style="font-style:normal;font-weight:normal;font-size:40px;line-height:25px;font-family:sans-serif;letter-spacing:0px;word-spacing:0px;fill:#000000;fill-opacity:1;stroke:none;stroke-width:1px;stroke-linecap:butt;stroke-linejoin:miter;stroke-opacity:1"
     x="644.93958"
     y="271.60687"
     id="text4866"><tspan
       sodipodi:role="line"
       id="tspan4864"
       x="644.93958"
       y="271.60687"
       style="font-style:normal;font-variant:normal;font-weight:normal;font-stretch:normal;font-size:21.33333397px;font-family:'Akkurat OT';-inkscape-font-specification:'Akkurat OT, Normal';font-variant-ligatures:normal;font-variant-caps:normal;font-variant-numeric:normal;font-feature-settings:normal;text-align:start;writing-mode:lr-tb;text-anchor:start">regurgitate</tspan></text>
<text
     xml:space="preserve"
     style="font-style:normal;font-weight:normal;font-size:40px;line-height:25px;font-family:sans-serif;letter-spacing:0px;word-spacing:0px;fill:#000000;fill-opacity:1;stroke:none;stroke-width:1px;stroke-linecap:butt;stroke-linejoin:miter;stroke-opacity:1"
     x="632.72424"
     y="357.75732"
     id="text4866-1"><tspan
       sodipodi:role="line"
       id="tspan4864-1"
       x="632.72424"
       y="357.75732"
       style="font-style:normal;font-variant:normal;font-weight:normal;font-stretch:normal;font-size:21.33333397px;font-family:'Akkurat OT';-inkscape-font-specification:'Akkurat OT, Normal';font-variant-ligatures:normal;font-variant-caps:normal;font-variant-numeric:normal;font-feature-settings:normal;text-align:start;writing-mode:lr-tb;text-anchor:start">gulp</tspan></text>
<text
     xml:space="preserve"
     style="font-style:normal;font-weight:normal;font-size:40px;line-height:25px;font-family:sans-serif;letter-spacing:0px;word-spacing:0px;fill:#000000;fill-opacity:1;stroke:none;stroke-width:1px;stroke-linecap:butt;stroke-linejoin:miter;stroke-opacity:1"
     x="855.86304"
     y="386.79352"
     id="text4866-1-0"><tspan
       sodipodi:role="line"
       id="tspan4864-1-3"
       x="855.86304"
       y="386.79352"
       style="font-style:normal;font-variant:normal;font-weight:normal;font-stretch:normal;font-size:21.33333397px;font-family:'Akkurat OT';-inkscape-font-specification:'Akkurat OT, Normal';font-variant-ligatures:normal;font-variant-caps:normal;font-variant-numeric:normal;font-feature-settings:normal;text-align:start;writing-mode:lr-tb;text-anchor:start">ruminate</tspan></text>
</svg>